<mxfile host="app.diagrams.net" modified="2024-03-25T06:05:15.178Z" agent="Mozilla/5.0 (Windows NT 10.0; Win64; x64) AppleWebKit/537.36 (KHTML, like Gecko) Chrome/122.0.0.0 Safari/537.36 Edg/122.0.0.0" etag="xRugwfUryZ1rGL8BEBcz" version="24.1.0" type="device" pages="3">
  <diagram name="第 1 页" id="U3ZR3GENnJwkddSzdmAZ">
    <mxGraphModel dx="316" dy="1479" grid="1" gridSize="10" guides="1" tooltips="1" connect="1" arrows="1" fold="1" page="1" pageScale="1" pageWidth="827" pageHeight="1169" math="0" shadow="0">
      <root>
        <mxCell id="0" />
        <mxCell id="1" parent="0" />
        <mxCell id="ofCxs5DWNxGw8NOInuar-2" value="ShanghaiTecher" style="swimlane;fontStyle=1;align=center;verticalAlign=top;childLayout=stackLayout;horizontal=1;startSize=26;horizontalStack=0;resizeParent=1;resizeParentMax=0;resizeLast=0;collapsible=1;marginBottom=0;whiteSpace=wrap;html=1;" vertex="1" parent="1">
          <mxGeometry x="290" y="-3" width="160" height="220" as="geometry">
            <mxRectangle x="290" y="150" width="130" height="30" as="alternateBounds" />
          </mxGeometry>
        </mxCell>
        <mxCell id="ofCxs5DWNxGw8NOInuar-3" value="+ name: string&lt;div&gt;+ age: int&lt;/div&gt;&lt;div&gt;+ gender: string&lt;br&gt;&lt;div&gt;+ id: int&lt;/div&gt;&lt;div&gt;+ deposit: float&lt;/div&gt;&lt;div&gt;+ email: string&lt;/div&gt;&lt;div&gt;+ phone: int&lt;/div&gt;&lt;/div&gt;" style="text;strokeColor=none;fillColor=none;align=left;verticalAlign=top;spacingLeft=4;spacingRight=4;overflow=hidden;rotatable=0;points=[[0,0.5],[1,0.5]];portConstraint=eastwest;whiteSpace=wrap;html=1;" vertex="1" parent="ofCxs5DWNxGw8NOInuar-2">
          <mxGeometry y="26" width="160" height="114" as="geometry" />
        </mxCell>
        <mxCell id="ofCxs5DWNxGw8NOInuar-4" value="" style="line;strokeWidth=1;fillColor=none;align=left;verticalAlign=middle;spacingTop=-1;spacingLeft=3;spacingRight=3;rotatable=0;labelPosition=right;points=[];portConstraint=eastwest;strokeColor=inherit;" vertex="1" parent="ofCxs5DWNxGw8NOInuar-2">
          <mxGeometry y="140" width="160" height="8" as="geometry" />
        </mxCell>
        <mxCell id="ofCxs5DWNxGw8NOInuar-5" value="+ pay(): string&lt;div&gt;+ EnterSchoolGate(): void&lt;/div&gt;&lt;div&gt;+ EnterLibrary(): void&lt;/div&gt;&lt;div&gt;+ EnterGym(): void&lt;/div&gt;" style="text;strokeColor=none;fillColor=none;align=left;verticalAlign=top;spacingLeft=4;spacingRight=4;overflow=hidden;rotatable=0;points=[[0,0.5],[1,0.5]];portConstraint=eastwest;whiteSpace=wrap;html=1;" vertex="1" parent="ofCxs5DWNxGw8NOInuar-2">
          <mxGeometry y="148" width="160" height="72" as="geometry" />
        </mxCell>
        <mxCell id="ofCxs5DWNxGw8NOInuar-37" value="" style="endArrow=block;endSize=16;endFill=0;html=1;entryX=0.378;entryY=1.053;entryDx=0;entryDy=0;entryPerimeter=0;" edge="1" parent="ofCxs5DWNxGw8NOInuar-2">
          <mxGeometry width="160" relative="1" as="geometry">
            <mxPoint x="-80" y="339.18" as="sourcePoint" />
            <mxPoint x="60.48000000000002" y="219.99600000000004" as="targetPoint" />
          </mxGeometry>
        </mxCell>
        <mxCell id="ofCxs5DWNxGw8NOInuar-6" value="Student" style="swimlane;fontStyle=1;align=center;verticalAlign=top;childLayout=stackLayout;horizontal=1;startSize=26;horizontalStack=0;resizeParent=1;resizeParentMax=0;resizeLast=0;collapsible=1;marginBottom=0;whiteSpace=wrap;html=1;" vertex="1" parent="1">
          <mxGeometry x="130" y="340" width="160" height="138" as="geometry" />
        </mxCell>
        <mxCell id="ofCxs5DWNxGw8NOInuar-7" value="+ School: string" style="text;strokeColor=none;fillColor=none;align=left;verticalAlign=top;spacingLeft=4;spacingRight=4;overflow=hidden;rotatable=0;points=[[0,0.5],[1,0.5]];portConstraint=eastwest;whiteSpace=wrap;html=1;" vertex="1" parent="ofCxs5DWNxGw8NOInuar-6">
          <mxGeometry y="26" width="160" height="26" as="geometry" />
        </mxCell>
        <mxCell id="ofCxs5DWNxGw8NOInuar-28" value="+ major: string" style="text;strokeColor=none;fillColor=none;align=left;verticalAlign=top;spacingLeft=4;spacingRight=4;overflow=hidden;rotatable=0;points=[[0,0.5],[1,0.5]];portConstraint=eastwest;whiteSpace=wrap;html=1;" vertex="1" parent="ofCxs5DWNxGw8NOInuar-6">
          <mxGeometry y="52" width="160" height="26" as="geometry" />
        </mxCell>
        <mxCell id="ofCxs5DWNxGw8NOInuar-38" value="+ Grade: int" style="text;strokeColor=none;fillColor=none;align=left;verticalAlign=top;spacingLeft=4;spacingRight=4;overflow=hidden;rotatable=0;points=[[0,0.5],[1,0.5]];portConstraint=eastwest;whiteSpace=wrap;html=1;" vertex="1" parent="ofCxs5DWNxGw8NOInuar-6">
          <mxGeometry y="78" width="160" height="26" as="geometry" />
        </mxCell>
        <mxCell id="ofCxs5DWNxGw8NOInuar-8" value="" style="line;strokeWidth=1;fillColor=none;align=left;verticalAlign=middle;spacingTop=-1;spacingLeft=3;spacingRight=3;rotatable=0;labelPosition=right;points=[];portConstraint=eastwest;strokeColor=inherit;" vertex="1" parent="ofCxs5DWNxGw8NOInuar-6">
          <mxGeometry y="104" width="160" height="8" as="geometry" />
        </mxCell>
        <mxCell id="ofCxs5DWNxGw8NOInuar-9" value="+ ExamCertificate(): string" style="text;strokeColor=none;fillColor=none;align=left;verticalAlign=top;spacingLeft=4;spacingRight=4;overflow=hidden;rotatable=0;points=[[0,0.5],[1,0.5]];portConstraint=eastwest;whiteSpace=wrap;html=1;" vertex="1" parent="ofCxs5DWNxGw8NOInuar-6">
          <mxGeometry y="112" width="160" height="26" as="geometry" />
        </mxCell>
        <mxCell id="ofCxs5DWNxGw8NOInuar-10" value="Employee" style="swimlane;fontStyle=1;align=center;verticalAlign=top;childLayout=stackLayout;horizontal=1;startSize=26;horizontalStack=0;resizeParent=1;resizeParentMax=0;resizeLast=0;collapsible=1;marginBottom=0;whiteSpace=wrap;html=1;" vertex="1" parent="1">
          <mxGeometry x="460" y="340" width="160" height="112" as="geometry" />
        </mxCell>
        <mxCell id="ofCxs5DWNxGw8NOInuar-11" value="+ salary: int" style="text;strokeColor=none;fillColor=none;align=left;verticalAlign=top;spacingLeft=4;spacingRight=4;overflow=hidden;rotatable=0;points=[[0,0.5],[1,0.5]];portConstraint=eastwest;whiteSpace=wrap;html=1;" vertex="1" parent="ofCxs5DWNxGw8NOInuar-10">
          <mxGeometry y="26" width="160" height="26" as="geometry" />
        </mxCell>
        <mxCell id="ofCxs5DWNxGw8NOInuar-40" value="+ Tenure: int" style="text;strokeColor=none;fillColor=none;align=left;verticalAlign=top;spacingLeft=4;spacingRight=4;overflow=hidden;rotatable=0;points=[[0,0.5],[1,0.5]];portConstraint=eastwest;whiteSpace=wrap;html=1;" vertex="1" parent="ofCxs5DWNxGw8NOInuar-10">
          <mxGeometry y="52" width="160" height="26" as="geometry" />
        </mxCell>
        <mxCell id="ofCxs5DWNxGw8NOInuar-12" value="" style="line;strokeWidth=1;fillColor=none;align=left;verticalAlign=middle;spacingTop=-1;spacingLeft=3;spacingRight=3;rotatable=0;labelPosition=right;points=[];portConstraint=eastwest;strokeColor=inherit;" vertex="1" parent="ofCxs5DWNxGw8NOInuar-10">
          <mxGeometry y="78" width="160" height="8" as="geometry" />
        </mxCell>
        <mxCell id="ofCxs5DWNxGw8NOInuar-13" value="+ EnterOffice(): string" style="text;strokeColor=none;fillColor=none;align=left;verticalAlign=top;spacingLeft=4;spacingRight=4;overflow=hidden;rotatable=0;points=[[0,0.5],[1,0.5]];portConstraint=eastwest;whiteSpace=wrap;html=1;" vertex="1" parent="ofCxs5DWNxGw8NOInuar-10">
          <mxGeometry y="86" width="160" height="26" as="geometry" />
        </mxCell>
        <mxCell id="ofCxs5DWNxGw8NOInuar-14" value="Public service staff" style="swimlane;fontStyle=1;align=center;verticalAlign=top;childLayout=stackLayout;horizontal=1;startSize=26;horizontalStack=0;resizeParent=1;resizeParentMax=0;resizeLast=0;collapsible=1;marginBottom=0;whiteSpace=wrap;html=1;" vertex="1" parent="1">
          <mxGeometry x="460" y="550" width="160" height="86" as="geometry" />
        </mxCell>
        <mxCell id="ofCxs5DWNxGw8NOInuar-15" value="+ department: string" style="text;strokeColor=none;fillColor=none;align=left;verticalAlign=top;spacingLeft=4;spacingRight=4;overflow=hidden;rotatable=0;points=[[0,0.5],[1,0.5]];portConstraint=eastwest;whiteSpace=wrap;html=1;" vertex="1" parent="ofCxs5DWNxGw8NOInuar-14">
          <mxGeometry y="26" width="160" height="26" as="geometry" />
        </mxCell>
        <mxCell id="ofCxs5DWNxGw8NOInuar-16" value="" style="line;strokeWidth=1;fillColor=none;align=left;verticalAlign=middle;spacingTop=-1;spacingLeft=3;spacingRight=3;rotatable=0;labelPosition=right;points=[];portConstraint=eastwest;strokeColor=inherit;" vertex="1" parent="ofCxs5DWNxGw8NOInuar-14">
          <mxGeometry y="52" width="160" height="8" as="geometry" />
        </mxCell>
        <mxCell id="ofCxs5DWNxGw8NOInuar-17" value="+ ManageCard(): string" style="text;strokeColor=none;fillColor=none;align=left;verticalAlign=top;spacingLeft=4;spacingRight=4;overflow=hidden;rotatable=0;points=[[0,0.5],[1,0.5]];portConstraint=eastwest;whiteSpace=wrap;html=1;" vertex="1" parent="ofCxs5DWNxGw8NOInuar-14">
          <mxGeometry y="60" width="160" height="26" as="geometry" />
        </mxCell>
        <mxCell id="ofCxs5DWNxGw8NOInuar-18" value="Professor" style="swimlane;fontStyle=1;align=center;verticalAlign=top;childLayout=stackLayout;horizontal=1;startSize=26;horizontalStack=0;resizeParent=1;resizeParentMax=0;resizeLast=0;collapsible=1;marginBottom=0;whiteSpace=wrap;html=1;" vertex="1" parent="1">
          <mxGeometry x="810" y="550" width="160" height="138" as="geometry" />
        </mxCell>
        <mxCell id="ofCxs5DWNxGw8NOInuar-19" value="+ School: string" style="text;strokeColor=none;fillColor=none;align=left;verticalAlign=top;spacingLeft=4;spacingRight=4;overflow=hidden;rotatable=0;points=[[0,0.5],[1,0.5]];portConstraint=eastwest;whiteSpace=wrap;html=1;" vertex="1" parent="ofCxs5DWNxGw8NOInuar-18">
          <mxGeometry y="26" width="160" height="26" as="geometry" />
        </mxCell>
        <mxCell id="ofCxs5DWNxGw8NOInuar-50" value="+ ResearchCenter: string" style="text;strokeColor=none;fillColor=none;align=left;verticalAlign=top;spacingLeft=4;spacingRight=4;overflow=hidden;rotatable=0;points=[[0,0.5],[1,0.5]];portConstraint=eastwest;whiteSpace=wrap;html=1;" vertex="1" parent="ofCxs5DWNxGw8NOInuar-18">
          <mxGeometry y="52" width="160" height="26" as="geometry" />
        </mxCell>
        <mxCell id="ofCxs5DWNxGw8NOInuar-51" value="+ project: string" style="text;strokeColor=none;fillColor=none;align=left;verticalAlign=top;spacingLeft=4;spacingRight=4;overflow=hidden;rotatable=0;points=[[0,0.5],[1,0.5]];portConstraint=eastwest;whiteSpace=wrap;html=1;" vertex="1" parent="ofCxs5DWNxGw8NOInuar-18">
          <mxGeometry y="78" width="160" height="26" as="geometry" />
        </mxCell>
        <mxCell id="ofCxs5DWNxGw8NOInuar-20" value="" style="line;strokeWidth=1;fillColor=none;align=left;verticalAlign=middle;spacingTop=-1;spacingLeft=3;spacingRight=3;rotatable=0;labelPosition=right;points=[];portConstraint=eastwest;strokeColor=inherit;" vertex="1" parent="ofCxs5DWNxGw8NOInuar-18">
          <mxGeometry y="104" width="160" height="8" as="geometry" />
        </mxCell>
        <mxCell id="ofCxs5DWNxGw8NOInuar-21" value="+ EnterStaffCafeteria(): void" style="text;strokeColor=none;fillColor=none;align=left;verticalAlign=top;spacingLeft=4;spacingRight=4;overflow=hidden;rotatable=0;points=[[0,0.5],[1,0.5]];portConstraint=eastwest;whiteSpace=wrap;html=1;" vertex="1" parent="ofCxs5DWNxGw8NOInuar-18">
          <mxGeometry y="112" width="160" height="26" as="geometry" />
        </mxCell>
        <mxCell id="ofCxs5DWNxGw8NOInuar-41" value="" style="endArrow=block;endSize=16;endFill=0;html=1;entryX=0.69;entryY=0.992;entryDx=0;entryDy=0;entryPerimeter=0;" edge="1" parent="1" target="ofCxs5DWNxGw8NOInuar-5">
          <mxGeometry width="160" relative="1" as="geometry">
            <mxPoint x="520" y="340" as="sourcePoint" />
            <mxPoint x="620" y="280" as="targetPoint" />
          </mxGeometry>
        </mxCell>
        <mxCell id="ofCxs5DWNxGw8NOInuar-42" value="" style="endArrow=none;html=1;edgeStyle=orthogonalEdgeStyle;entryX=0.007;entryY=0.863;entryDx=0;entryDy=0;entryPerimeter=0;exitX=0.437;exitY=1.077;exitDx=0;exitDy=0;exitPerimeter=0;" edge="1" parent="1" source="ofCxs5DWNxGw8NOInuar-9" target="ofCxs5DWNxGw8NOInuar-17">
          <mxGeometry relative="1" as="geometry">
            <mxPoint x="340" y="430" as="sourcePoint" />
            <mxPoint x="470" y="500" as="targetPoint" />
            <Array as="points">
              <mxPoint x="200" y="632" />
            </Array>
          </mxGeometry>
        </mxCell>
        <mxCell id="ofCxs5DWNxGw8NOInuar-43" value="&lt;font style=&quot;font-size: 20px;&quot;&gt;*&lt;/font&gt;" style="edgeLabel;resizable=0;html=1;align=left;verticalAlign=bottom;" connectable="0" vertex="1" parent="ofCxs5DWNxGw8NOInuar-42">
          <mxGeometry x="-1" relative="1" as="geometry">
            <mxPoint x="3" y="28" as="offset" />
          </mxGeometry>
        </mxCell>
        <mxCell id="ofCxs5DWNxGw8NOInuar-44" value="*" style="edgeLabel;resizable=0;html=1;align=right;verticalAlign=bottom;fontSize=20;" connectable="0" vertex="1" parent="ofCxs5DWNxGw8NOInuar-42">
          <mxGeometry x="1" relative="1" as="geometry">
            <mxPoint x="-15" as="offset" />
          </mxGeometry>
        </mxCell>
        <mxCell id="ofCxs5DWNxGw8NOInuar-53" value="" style="endArrow=block;endSize=16;endFill=0;html=1;entryX=0.493;entryY=1.114;entryDx=0;entryDy=0;entryPerimeter=0;exitX=0.5;exitY=0;exitDx=0;exitDy=0;" edge="1" parent="1" source="ofCxs5DWNxGw8NOInuar-14" target="ofCxs5DWNxGw8NOInuar-13">
          <mxGeometry width="160" relative="1" as="geometry">
            <mxPoint x="570" y="600" as="sourcePoint" />
            <mxPoint x="730" y="600" as="targetPoint" />
          </mxGeometry>
        </mxCell>
        <mxCell id="ofCxs5DWNxGw8NOInuar-54" value="" style="endArrow=block;endSize=16;endFill=0;html=1;entryX=0.631;entryY=1.082;entryDx=0;entryDy=0;entryPerimeter=0;exitX=0.372;exitY=0.021;exitDx=0;exitDy=0;exitPerimeter=0;" edge="1" parent="1" source="ofCxs5DWNxGw8NOInuar-18" target="ofCxs5DWNxGw8NOInuar-13">
          <mxGeometry width="160" relative="1" as="geometry">
            <mxPoint x="670" y="490" as="sourcePoint" />
            <mxPoint x="830" y="490" as="targetPoint" />
          </mxGeometry>
        </mxCell>
        <mxCell id="ofCxs5DWNxGw8NOInuar-55" value="" style="endArrow=none;html=1;edgeStyle=orthogonalEdgeStyle;entryX=0;entryY=0.077;entryDx=0;entryDy=0;entryPerimeter=0;" edge="1" parent="1" target="ofCxs5DWNxGw8NOInuar-51">
          <mxGeometry relative="1" as="geometry">
            <mxPoint x="620" y="630" as="sourcePoint" />
            <mxPoint x="780" y="630" as="targetPoint" />
          </mxGeometry>
        </mxCell>
        <mxCell id="ofCxs5DWNxGw8NOInuar-56" value="*" style="edgeLabel;resizable=0;html=1;align=left;verticalAlign=bottom;fontSize=20;" connectable="0" vertex="1" parent="ofCxs5DWNxGw8NOInuar-55">
          <mxGeometry x="-1" relative="1" as="geometry">
            <mxPoint x="3" as="offset" />
          </mxGeometry>
        </mxCell>
        <mxCell id="ofCxs5DWNxGw8NOInuar-57" value="*" style="edgeLabel;resizable=0;html=1;align=right;verticalAlign=bottom;fontSize=20;" connectable="0" vertex="1" parent="ofCxs5DWNxGw8NOInuar-55">
          <mxGeometry x="1" relative="1" as="geometry">
            <mxPoint x="-3" as="offset" />
          </mxGeometry>
        </mxCell>
      </root>
    </mxGraphModel>
  </diagram>
  <diagram id="nO97_AasM5KcUaTCJJdT" name="第 2 页">
    <mxGraphModel dx="677" dy="664" grid="1" gridSize="10" guides="1" tooltips="1" connect="1" arrows="1" fold="1" page="1" pageScale="1" pageWidth="827" pageHeight="1169" math="0" shadow="0">
      <root>
        <mxCell id="0" />
        <mxCell id="1" parent="0" />
        <mxCell id="uOvUFGbLs_MnNtL5Q3P_-1" value="&lt;div&gt;&lt;br&gt;&lt;/div&gt;" style="html=1;whiteSpace=wrap;" vertex="1" parent="1">
          <mxGeometry x="130" y="460" width="660" height="660" as="geometry" />
        </mxCell>
        <mxCell id="uOvUFGbLs_MnNtL5Q3P_-2" value="Student" style="shape=umlActor;verticalLabelPosition=bottom;verticalAlign=top;html=1;" vertex="1" parent="1">
          <mxGeometry x="70" y="584" width="30" height="60" as="geometry" />
        </mxCell>
        <mxCell id="uOvUFGbLs_MnNtL5Q3P_-3" value="EnterSchoolGate" style="ellipse;whiteSpace=wrap;html=1;" vertex="1" parent="1">
          <mxGeometry x="250" y="540" width="100" height="50" as="geometry" />
        </mxCell>
        <mxCell id="uOvUFGbLs_MnNtL5Q3P_-5" value="EnterLibrary" style="ellipse;whiteSpace=wrap;html=1;" vertex="1" parent="1">
          <mxGeometry x="250" y="610" width="100" height="50" as="geometry" />
        </mxCell>
        <mxCell id="uOvUFGbLs_MnNtL5Q3P_-6" value="EnterLibrary" style="ellipse;whiteSpace=wrap;html=1;" vertex="1" parent="1">
          <mxGeometry x="250" y="470" width="100" height="50" as="geometry" />
        </mxCell>
        <mxCell id="uOvUFGbLs_MnNtL5Q3P_-7" value="pay" style="ellipse;whiteSpace=wrap;html=1;" vertex="1" parent="1">
          <mxGeometry x="250" y="680" width="100" height="50" as="geometry" />
        </mxCell>
        <mxCell id="uOvUFGbLs_MnNtL5Q3P_-10" value="Borrow book" style="ellipse;whiteSpace=wrap;html=1;" vertex="1" parent="1">
          <mxGeometry x="470" y="470" width="100" height="50" as="geometry" />
        </mxCell>
        <mxCell id="uOvUFGbLs_MnNtL5Q3P_-11" value="&amp;lt;&amp;lt;extend&amp;gt;&amp;gt;" style="endArrow=open;endSize=12;dashed=1;html=1;entryX=0;entryY=0.4;entryDx=0;entryDy=0;entryPerimeter=0;" edge="1" parent="1" source="uOvUFGbLs_MnNtL5Q3P_-6" target="uOvUFGbLs_MnNtL5Q3P_-10">
          <mxGeometry width="160" relative="1" as="geometry">
            <mxPoint x="350" y="495" as="sourcePoint" />
            <mxPoint x="460" y="495" as="targetPoint" />
          </mxGeometry>
        </mxCell>
        <mxCell id="uOvUFGbLs_MnNtL5Q3P_-12" value="Deposit" style="ellipse;whiteSpace=wrap;html=1;" vertex="1" parent="1">
          <mxGeometry x="250" y="750" width="100" height="50" as="geometry" />
        </mxCell>
        <mxCell id="uOvUFGbLs_MnNtL5Q3P_-13" value="&lt;span style=&quot;text-wrap: wrap;&quot;&gt;Public service staff&lt;/span&gt;" style="shape=umlActor;verticalLabelPosition=bottom;verticalAlign=top;html=1;" vertex="1" parent="1">
          <mxGeometry x="70" y="910" width="30" height="60" as="geometry" />
        </mxCell>
        <mxCell id="GIB2EIbB4sE1GNv0SKKh-1" value="ManageCards" style="ellipse;whiteSpace=wrap;html=1;" vertex="1" parent="1">
          <mxGeometry x="250" y="920" width="100" height="50" as="geometry" />
        </mxCell>
        <mxCell id="GIB2EIbB4sE1GNv0SKKh-2" value="CreateCard" style="ellipse;whiteSpace=wrap;html=1;" vertex="1" parent="1">
          <mxGeometry x="480" y="830" width="100" height="50" as="geometry" />
        </mxCell>
        <mxCell id="GIB2EIbB4sE1GNv0SKKh-3" value="DestroyCard" style="ellipse;whiteSpace=wrap;html=1;" vertex="1" parent="1">
          <mxGeometry x="480" y="915" width="100" height="50" as="geometry" />
        </mxCell>
        <mxCell id="GIB2EIbB4sE1GNv0SKKh-4" value="FreezeCard" style="ellipse;whiteSpace=wrap;html=1;" vertex="1" parent="1">
          <mxGeometry x="480" y="1000" width="100" height="50" as="geometry" />
        </mxCell>
        <mxCell id="GIB2EIbB4sE1GNv0SKKh-5" value="&amp;lt;&amp;lt;include&amp;gt;&amp;gt;" style="endArrow=open;endSize=12;dashed=1;html=1;exitX=0.333;exitY=0.712;exitDx=0;exitDy=0;exitPerimeter=0;entryX=0;entryY=0.5;entryDx=0;entryDy=0;" edge="1" parent="1" source="uOvUFGbLs_MnNtL5Q3P_-1" target="GIB2EIbB4sE1GNv0SKKh-2">
          <mxGeometry width="160" relative="1" as="geometry">
            <mxPoint x="410" y="890" as="sourcePoint" />
            <mxPoint x="570" y="890" as="targetPoint" />
          </mxGeometry>
        </mxCell>
        <mxCell id="GIB2EIbB4sE1GNv0SKKh-6" value="&amp;lt;&amp;lt;include&amp;gt;&amp;gt;" style="endArrow=open;endSize=12;dashed=1;html=1;entryX=-0.036;entryY=0.671;entryDx=0;entryDy=0;entryPerimeter=0;" edge="1" parent="1" target="GIB2EIbB4sE1GNv0SKKh-3">
          <mxGeometry width="160" relative="1" as="geometry">
            <mxPoint x="350" y="950" as="sourcePoint" />
            <mxPoint x="510" y="950" as="targetPoint" />
          </mxGeometry>
        </mxCell>
        <mxCell id="GIB2EIbB4sE1GNv0SKKh-7" value="&amp;lt;&amp;lt;include&amp;gt;&amp;gt;" style="endArrow=open;endSize=12;dashed=1;html=1;exitX=1;exitY=1;exitDx=0;exitDy=0;entryX=0;entryY=0.5;entryDx=0;entryDy=0;" edge="1" parent="1" source="GIB2EIbB4sE1GNv0SKKh-1" target="GIB2EIbB4sE1GNv0SKKh-4">
          <mxGeometry width="160" relative="1" as="geometry">
            <mxPoint x="350" y="1000" as="sourcePoint" />
            <mxPoint x="510" y="1000" as="targetPoint" />
          </mxGeometry>
        </mxCell>
        <mxCell id="GIB2EIbB4sE1GNv0SKKh-9" value="" style="line;strokeWidth=1;fillColor=none;align=left;verticalAlign=middle;spacingTop=-1;spacingLeft=3;spacingRight=3;rotatable=0;labelPosition=right;points=[];portConstraint=eastwest;strokeColor=inherit;" vertex="1" parent="1">
          <mxGeometry x="90" y="941" width="160" height="8" as="geometry" />
        </mxCell>
        <mxCell id="GIB2EIbB4sE1GNv0SKKh-22" value="" style="endArrow=none;html=1;rounded=0;entryX=0;entryY=0.5;entryDx=0;entryDy=0;exitX=0.75;exitY=0.1;exitDx=0;exitDy=0;exitPerimeter=0;" edge="1" parent="1" source="uOvUFGbLs_MnNtL5Q3P_-2" target="uOvUFGbLs_MnNtL5Q3P_-6">
          <mxGeometry relative="1" as="geometry">
            <mxPoint x="70" y="550" as="sourcePoint" />
            <mxPoint x="230" y="550" as="targetPoint" />
          </mxGeometry>
        </mxCell>
        <mxCell id="GIB2EIbB4sE1GNv0SKKh-23" value="" style="endArrow=none;html=1;rounded=0;entryX=0;entryY=0.5;entryDx=0;entryDy=0;" edge="1" parent="1" target="uOvUFGbLs_MnNtL5Q3P_-3">
          <mxGeometry relative="1" as="geometry">
            <mxPoint x="90" y="600" as="sourcePoint" />
            <mxPoint x="250" y="600" as="targetPoint" />
          </mxGeometry>
        </mxCell>
        <mxCell id="GIB2EIbB4sE1GNv0SKKh-24" value="" style="endArrow=none;html=1;rounded=0;entryX=0;entryY=0.5;entryDx=0;entryDy=0;exitX=1;exitY=0.3333333333333333;exitDx=0;exitDy=0;exitPerimeter=0;" edge="1" parent="1" source="uOvUFGbLs_MnNtL5Q3P_-2" target="uOvUFGbLs_MnNtL5Q3P_-5">
          <mxGeometry relative="1" as="geometry">
            <mxPoint x="80" y="640" as="sourcePoint" />
            <mxPoint x="240" y="640" as="targetPoint" />
          </mxGeometry>
        </mxCell>
        <mxCell id="GIB2EIbB4sE1GNv0SKKh-25" value="" style="endArrow=none;html=1;rounded=0;" edge="1" parent="1" source="uOvUFGbLs_MnNtL5Q3P_-2">
          <mxGeometry relative="1" as="geometry">
            <mxPoint x="90" y="700" as="sourcePoint" />
            <mxPoint x="250" y="700" as="targetPoint" />
          </mxGeometry>
        </mxCell>
        <mxCell id="GIB2EIbB4sE1GNv0SKKh-26" value="" style="endArrow=none;html=1;rounded=0;exitX=1;exitY=1;exitDx=0;exitDy=0;exitPerimeter=0;" edge="1" parent="1" source="uOvUFGbLs_MnNtL5Q3P_-2">
          <mxGeometry relative="1" as="geometry">
            <mxPoint x="90" y="770" as="sourcePoint" />
            <mxPoint x="250" y="770" as="targetPoint" />
          </mxGeometry>
        </mxCell>
        <mxCell id="GIB2EIbB4sE1GNv0SKKh-27" value="" style="endArrow=none;html=1;rounded=0;exitX=0.75;exitY=0.1;exitDx=0;exitDy=0;exitPerimeter=0;entryX=0;entryY=1;entryDx=0;entryDy=0;" edge="1" parent="1" source="uOvUFGbLs_MnNtL5Q3P_-13" target="uOvUFGbLs_MnNtL5Q3P_-6">
          <mxGeometry relative="1" as="geometry">
            <mxPoint x="140" y="740" as="sourcePoint" />
            <mxPoint x="300" y="740" as="targetPoint" />
          </mxGeometry>
        </mxCell>
        <mxCell id="GIB2EIbB4sE1GNv0SKKh-28" value="" style="endArrow=none;html=1;rounded=0;exitX=0.5;exitY=0.5;exitDx=0;exitDy=0;exitPerimeter=0;entryX=0;entryY=1;entryDx=0;entryDy=0;" edge="1" parent="1" source="uOvUFGbLs_MnNtL5Q3P_-13" target="uOvUFGbLs_MnNtL5Q3P_-3">
          <mxGeometry relative="1" as="geometry">
            <mxPoint x="140" y="740" as="sourcePoint" />
            <mxPoint x="300" y="740" as="targetPoint" />
          </mxGeometry>
        </mxCell>
        <mxCell id="GIB2EIbB4sE1GNv0SKKh-29" value="" style="endArrow=none;html=1;rounded=0;exitX=0.5;exitY=0.5;exitDx=0;exitDy=0;exitPerimeter=0;entryX=0.047;entryY=0.703;entryDx=0;entryDy=0;entryPerimeter=0;" edge="1" parent="1" source="uOvUFGbLs_MnNtL5Q3P_-13" target="uOvUFGbLs_MnNtL5Q3P_-5">
          <mxGeometry relative="1" as="geometry">
            <mxPoint x="140" y="740" as="sourcePoint" />
            <mxPoint x="300" y="740" as="targetPoint" />
          </mxGeometry>
        </mxCell>
        <mxCell id="GIB2EIbB4sE1GNv0SKKh-30" value="" style="endArrow=none;html=1;rounded=0;exitX=0.5;exitY=0.5;exitDx=0;exitDy=0;exitPerimeter=0;entryX=0.03;entryY=0.663;entryDx=0;entryDy=0;entryPerimeter=0;" edge="1" parent="1" source="uOvUFGbLs_MnNtL5Q3P_-13" target="uOvUFGbLs_MnNtL5Q3P_-7">
          <mxGeometry relative="1" as="geometry">
            <mxPoint x="160" y="850" as="sourcePoint" />
            <mxPoint x="320" y="850" as="targetPoint" />
          </mxGeometry>
        </mxCell>
        <mxCell id="GIB2EIbB4sE1GNv0SKKh-31" value="" style="endArrow=none;html=1;rounded=0;entryX=0;entryY=0.5;entryDx=0;entryDy=0;" edge="1" parent="1" source="uOvUFGbLs_MnNtL5Q3P_-13" target="uOvUFGbLs_MnNtL5Q3P_-12">
          <mxGeometry relative="1" as="geometry">
            <mxPoint x="160" y="870" as="sourcePoint" />
            <mxPoint x="320" y="870" as="targetPoint" />
          </mxGeometry>
        </mxCell>
        <mxCell id="GIB2EIbB4sE1GNv0SKKh-33" value="ExamCertificate" style="ellipse;whiteSpace=wrap;html=1;" vertex="1" parent="1">
          <mxGeometry x="250" y="1020" width="100" height="50" as="geometry" />
        </mxCell>
        <mxCell id="GIB2EIbB4sE1GNv0SKKh-34" value="EnterOffice" style="ellipse;whiteSpace=wrap;html=1;" vertex="1" parent="1">
          <mxGeometry x="250" y="830" width="100" height="50" as="geometry" />
        </mxCell>
        <mxCell id="GIB2EIbB4sE1GNv0SKKh-35" value="" style="endArrow=none;html=1;rounded=0;entryX=0;entryY=0.5;entryDx=0;entryDy=0;" edge="1" parent="1" source="uOvUFGbLs_MnNtL5Q3P_-2" target="GIB2EIbB4sE1GNv0SKKh-33">
          <mxGeometry relative="1" as="geometry">
            <mxPoint x="180" y="790" as="sourcePoint" />
            <mxPoint x="340" y="790" as="targetPoint" />
          </mxGeometry>
        </mxCell>
        <mxCell id="GIB2EIbB4sE1GNv0SKKh-36" value="" style="endArrow=none;html=1;rounded=0;entryX=0;entryY=0.5;entryDx=0;entryDy=0;" edge="1" parent="1" source="uOvUFGbLs_MnNtL5Q3P_-13" target="GIB2EIbB4sE1GNv0SKKh-34">
          <mxGeometry relative="1" as="geometry">
            <mxPoint x="180" y="790" as="sourcePoint" />
            <mxPoint x="340" y="790" as="targetPoint" />
          </mxGeometry>
        </mxCell>
        <mxCell id="GIB2EIbB4sE1GNv0SKKh-37" value="EnterPlace&lt;div&gt;(abstract)&lt;/div&gt;" style="ellipse;whiteSpace=wrap;html=1;" vertex="1" parent="1">
          <mxGeometry x="480" y="610" width="100" height="50" as="geometry" />
        </mxCell>
        <mxCell id="GIB2EIbB4sE1GNv0SKKh-38" value="" style="endArrow=block;endSize=16;endFill=0;html=1;entryX=0;entryY=0.5;entryDx=0;entryDy=0;exitX=1;exitY=0.5;exitDx=0;exitDy=0;" edge="1" parent="1" source="uOvUFGbLs_MnNtL5Q3P_-6" target="GIB2EIbB4sE1GNv0SKKh-37">
          <mxGeometry width="160" relative="1" as="geometry">
            <mxPoint x="180" y="790" as="sourcePoint" />
            <mxPoint x="340" y="790" as="targetPoint" />
          </mxGeometry>
        </mxCell>
        <mxCell id="GIB2EIbB4sE1GNv0SKKh-39" value="" style="endArrow=block;endSize=16;endFill=0;html=1;entryX=0;entryY=0.5;entryDx=0;entryDy=0;exitX=1;exitY=0.5;exitDx=0;exitDy=0;" edge="1" parent="1" target="GIB2EIbB4sE1GNv0SKKh-37">
          <mxGeometry width="160" relative="1" as="geometry">
            <mxPoint x="351" y="565" as="sourcePoint" />
            <mxPoint x="481" y="705" as="targetPoint" />
          </mxGeometry>
        </mxCell>
        <mxCell id="GIB2EIbB4sE1GNv0SKKh-40" value="" style="endArrow=block;endSize=16;endFill=0;html=1;entryX=0;entryY=1;entryDx=0;entryDy=0;exitX=1;exitY=0.5;exitDx=0;exitDy=0;" edge="1" parent="1" target="GIB2EIbB4sE1GNv0SKKh-37">
          <mxGeometry width="160" relative="1" as="geometry">
            <mxPoint x="350" y="633" as="sourcePoint" />
            <mxPoint x="480" y="773" as="targetPoint" />
          </mxGeometry>
        </mxCell>
        <mxCell id="GIB2EIbB4sE1GNv0SKKh-41" value="" style="endArrow=block;endSize=16;endFill=0;html=1;entryX=0;entryY=1;entryDx=0;entryDy=0;exitX=1;exitY=0.5;exitDx=0;exitDy=0;" edge="1" parent="1" source="GIB2EIbB4sE1GNv0SKKh-34" target="GIB2EIbB4sE1GNv0SKKh-37">
          <mxGeometry width="160" relative="1" as="geometry">
            <mxPoint x="380" y="736" as="sourcePoint" />
            <mxPoint x="510" y="876" as="targetPoint" />
          </mxGeometry>
        </mxCell>
      </root>
    </mxGraphModel>
  </diagram>
  <diagram id="QEqe2o5QKLZxKkMy3DV9" name="第 3 页">
    <mxGraphModel dx="729" dy="715" grid="1" gridSize="10" guides="1" tooltips="1" connect="1" arrows="1" fold="1" page="1" pageScale="1" pageWidth="827" pageHeight="1169" math="0" shadow="0">
      <root>
        <mxCell id="0" />
        <mxCell id="1" parent="0" />
        <mxCell id="J0ww8ttCI4tsdEaziTgQ-1" value="&lt;p style=&quot;margin:0px;margin-top:4px;text-align:center;&quot;&gt;&lt;b&gt;Student&lt;/b&gt;&lt;/p&gt;&lt;hr size=&quot;1&quot; style=&quot;border-style:solid;&quot;&gt;&lt;div style=&quot;height:2px;&quot;&gt;&lt;/div&gt;" style="verticalAlign=top;align=left;overflow=fill;html=1;whiteSpace=wrap;" vertex="1" parent="1">
          <mxGeometry x="80" y="130" width="240" height="560" as="geometry" />
        </mxCell>
        <mxCell id="J0ww8ttCI4tsdEaziTgQ-2" value="&lt;p style=&quot;margin:0px;margin-top:4px;text-align:center;&quot;&gt;&lt;b&gt;ATM&lt;/b&gt;&lt;/p&gt;&lt;hr size=&quot;1&quot; style=&quot;border-style:solid;&quot;&gt;&lt;div style=&quot;height:2px;&quot;&gt;&lt;/div&gt;" style="verticalAlign=top;align=left;overflow=fill;html=1;whiteSpace=wrap;" vertex="1" parent="1">
          <mxGeometry x="320" y="130" width="240" height="560" as="geometry" />
        </mxCell>
        <mxCell id="J0ww8ttCI4tsdEaziTgQ-4" value="" style="ellipse;html=1;shape=startState;fillColor=#000000;strokeColor=#ff0000;" vertex="1" parent="1">
          <mxGeometry x="110" y="200" width="30" height="30" as="geometry" />
        </mxCell>
        <mxCell id="J0ww8ttCI4tsdEaziTgQ-5" value="" style="edgeStyle=orthogonalEdgeStyle;html=1;verticalAlign=bottom;endArrow=open;endSize=8;strokeColor=#ff0000;" edge="1" source="J0ww8ttCI4tsdEaziTgQ-4" parent="1">
          <mxGeometry relative="1" as="geometry">
            <mxPoint x="170" y="215" as="targetPoint" />
          </mxGeometry>
        </mxCell>
        <mxCell id="J0ww8ttCI4tsdEaziTgQ-7" value="&lt;p style=&quot;margin:0px;margin-top:4px;text-align:center;&quot;&gt;&lt;b&gt;Bank DataBase&lt;/b&gt;&lt;/p&gt;&lt;hr size=&quot;1&quot; style=&quot;border-style:solid;&quot;&gt;&lt;div style=&quot;height:2px;&quot;&gt;&lt;/div&gt;" style="verticalAlign=top;align=left;overflow=fill;html=1;whiteSpace=wrap;" vertex="1" parent="1">
          <mxGeometry x="560" y="130" width="240" height="560" as="geometry" />
        </mxCell>
        <mxCell id="J0ww8ttCI4tsdEaziTgQ-15" value="Select transfer" style="rounded=1;whiteSpace=wrap;html=1;arcSize=40;fontColor=#000000;fillColor=#ffffc0;strokeColor=#ff0000;" vertex="1" parent="1">
          <mxGeometry x="170" y="200" width="120" height="40" as="geometry" />
        </mxCell>
        <mxCell id="J0ww8ttCI4tsdEaziTgQ-17" value="Prompt for account and amount input" style="rounded=1;whiteSpace=wrap;html=1;arcSize=40;fontColor=#000000;fillColor=#ffffc0;strokeColor=#ff0000;" vertex="1" parent="1">
          <mxGeometry x="390" y="200" width="120" height="40" as="geometry" />
        </mxCell>
        <mxCell id="J0ww8ttCI4tsdEaziTgQ-19" value="Enter account and amount" style="rounded=1;whiteSpace=wrap;html=1;arcSize=40;fontColor=#000000;fillColor=#ffffc0;strokeColor=#ff0000;" vertex="1" parent="1">
          <mxGeometry x="100" y="330" width="120" height="40" as="geometry" />
        </mxCell>
        <mxCell id="J0ww8ttCI4tsdEaziTgQ-21" value="" style="edgeStyle=orthogonalEdgeStyle;html=1;verticalAlign=bottom;endArrow=open;endSize=8;strokeColor=#ff0000;entryX=0;entryY=0.5;entryDx=0;entryDy=0;exitX=1;exitY=0.5;exitDx=0;exitDy=0;" edge="1" parent="1" source="J0ww8ttCI4tsdEaziTgQ-15" target="J0ww8ttCI4tsdEaziTgQ-17">
          <mxGeometry relative="1" as="geometry">
            <mxPoint x="240" y="440" as="targetPoint" />
            <mxPoint x="240" y="380" as="sourcePoint" />
          </mxGeometry>
        </mxCell>
        <mxCell id="J0ww8ttCI4tsdEaziTgQ-22" value="" style="edgeStyle=orthogonalEdgeStyle;html=1;verticalAlign=bottom;endArrow=open;endSize=8;strokeColor=#ff0000;exitX=0.333;exitY=1;exitDx=0;exitDy=0;exitPerimeter=0;entryX=0.5;entryY=0;entryDx=0;entryDy=0;" edge="1" parent="1" source="J0ww8ttCI4tsdEaziTgQ-17" target="J0ww8ttCI4tsdEaziTgQ-19">
          <mxGeometry relative="1" as="geometry">
            <mxPoint x="250" y="450" as="targetPoint" />
            <mxPoint x="250" y="390" as="sourcePoint" />
          </mxGeometry>
        </mxCell>
        <mxCell id="J0ww8ttCI4tsdEaziTgQ-23" value="check money enough？" style="rhombus;whiteSpace=wrap;html=1;fontColor=#000000;fillColor=#ffffc0;strokeColor=#ff0000;" vertex="1" parent="1">
          <mxGeometry x="330" y="510" width="80" height="40" as="geometry" />
        </mxCell>
        <mxCell id="J0ww8ttCI4tsdEaziTgQ-24" value="no" style="edgeStyle=orthogonalEdgeStyle;html=1;align=left;verticalAlign=bottom;endArrow=open;endSize=8;strokeColor=#ff0000;entryX=0.622;entryY=1.025;entryDx=0;entryDy=0;entryPerimeter=0;" edge="1" source="J0ww8ttCI4tsdEaziTgQ-23" parent="1" target="J0ww8ttCI4tsdEaziTgQ-29">
          <mxGeometry x="-1" relative="1" as="geometry">
            <mxPoint x="510" y="530" as="targetPoint" />
            <Array as="points">
              <mxPoint x="465" y="530" />
            </Array>
          </mxGeometry>
        </mxCell>
        <mxCell id="J0ww8ttCI4tsdEaziTgQ-25" value="yes" style="edgeStyle=orthogonalEdgeStyle;html=1;align=left;verticalAlign=top;endArrow=open;endSize=8;strokeColor=#ff0000;" edge="1" source="J0ww8ttCI4tsdEaziTgQ-23" parent="1" target="J0ww8ttCI4tsdEaziTgQ-32">
          <mxGeometry x="-1" relative="1" as="geometry">
            <mxPoint x="370" y="610" as="targetPoint" />
            <Array as="points">
              <mxPoint x="370" y="570" />
            </Array>
          </mxGeometry>
        </mxCell>
        <mxCell id="J0ww8ttCI4tsdEaziTgQ-26" value="check account correct？" style="rhombus;whiteSpace=wrap;html=1;fontColor=#000000;fillColor=#ffffc0;strokeColor=#ff0000;" vertex="1" parent="1">
          <mxGeometry x="330" y="380" width="80" height="40" as="geometry" />
        </mxCell>
        <mxCell id="J0ww8ttCI4tsdEaziTgQ-27" value="no" style="edgeStyle=orthogonalEdgeStyle;html=1;align=left;verticalAlign=bottom;endArrow=open;endSize=8;strokeColor=#ff0000;entryX=0.443;entryY=0.957;entryDx=0;entryDy=0;entryPerimeter=0;" edge="1" source="J0ww8ttCI4tsdEaziTgQ-26" parent="1" target="J0ww8ttCI4tsdEaziTgQ-29">
          <mxGeometry x="-1" relative="1" as="geometry">
            <mxPoint x="510" y="400" as="targetPoint" />
          </mxGeometry>
        </mxCell>
        <mxCell id="J0ww8ttCI4tsdEaziTgQ-28" value="yes" style="edgeStyle=orthogonalEdgeStyle;html=1;align=left;verticalAlign=top;endArrow=open;endSize=8;strokeColor=#ff0000;entryX=0.338;entryY=0.758;entryDx=0;entryDy=0;entryPerimeter=0;" edge="1" parent="1">
          <mxGeometry x="-1" relative="1" as="geometry">
            <mxPoint x="531.2199999999999" y="487.61" as="targetPoint" />
            <mxPoint x="368.78850574712646" y="420.00425287356325" as="sourcePoint" />
            <Array as="points">
              <mxPoint x="368.8" y="490.01" />
              <mxPoint x="510.8" y="490.01" />
              <mxPoint x="510.8" y="488.01" />
            </Array>
          </mxGeometry>
        </mxCell>
        <mxCell id="J0ww8ttCI4tsdEaziTgQ-29" value="Error message" style="rounded=1;whiteSpace=wrap;html=1;arcSize=40;fontColor=#000000;fillColor=#ffffc0;strokeColor=#ff0000;" vertex="1" parent="1">
          <mxGeometry x="390" y="310" width="120" height="40" as="geometry" />
        </mxCell>
        <mxCell id="J0ww8ttCI4tsdEaziTgQ-32" value="" style="shape=line;html=1;strokeWidth=6;strokeColor=#ff0000;direction=south;" vertex="1" parent="1">
          <mxGeometry x="530" y="420" width="10" height="200" as="geometry" />
        </mxCell>
        <mxCell id="J0ww8ttCI4tsdEaziTgQ-35" value="Transfer to target account and modify balance" style="rounded=1;whiteSpace=wrap;html=1;arcSize=40;fontColor=#000000;fillColor=#ffffc0;strokeColor=#ff0000;" vertex="1" parent="1">
          <mxGeometry x="660" y="520" width="120" height="40" as="geometry" />
        </mxCell>
        <mxCell id="J0ww8ttCI4tsdEaziTgQ-36" value="" style="edgeStyle=orthogonalEdgeStyle;html=1;verticalAlign=bottom;endArrow=open;endSize=8;strokeColor=#ff0000;entryX=1;entryY=0.5;entryDx=0;entryDy=0;" edge="1" source="J0ww8ttCI4tsdEaziTgQ-35" parent="1" target="J0ww8ttCI4tsdEaziTgQ-37">
          <mxGeometry relative="1" as="geometry">
            <mxPoint x="720" y="620" as="targetPoint" />
            <Array as="points">
              <mxPoint x="720" y="650" />
            </Array>
          </mxGeometry>
        </mxCell>
        <mxCell id="J0ww8ttCI4tsdEaziTgQ-37" value="&lt;div&gt;Transfer successful&lt;/div&gt;" style="rounded=1;whiteSpace=wrap;html=1;arcSize=40;fontColor=#000000;fillColor=#ffffc0;strokeColor=#ff0000;" vertex="1" parent="1">
          <mxGeometry x="430" y="630" width="120" height="40" as="geometry" />
        </mxCell>
        <mxCell id="J0ww8ttCI4tsdEaziTgQ-38" value="" style="edgeStyle=orthogonalEdgeStyle;html=1;verticalAlign=bottom;endArrow=open;endSize=8;strokeColor=#ff0000;entryX=1;entryY=0.5;entryDx=0;entryDy=0;" edge="1" source="J0ww8ttCI4tsdEaziTgQ-37" parent="1" target="J0ww8ttCI4tsdEaziTgQ-39">
          <mxGeometry relative="1" as="geometry">
            <mxPoint x="490" y="730" as="targetPoint" />
          </mxGeometry>
        </mxCell>
        <mxCell id="J0ww8ttCI4tsdEaziTgQ-39" value="" style="ellipse;html=1;shape=endState;fillColor=#000000;strokeColor=#ff0000;" vertex="1" parent="1">
          <mxGeometry x="360" y="635" width="30" height="30" as="geometry" />
        </mxCell>
        <mxCell id="J0ww8ttCI4tsdEaziTgQ-41" value="" style="edgeStyle=orthogonalEdgeStyle;html=1;verticalAlign=bottom;endArrow=open;endSize=8;strokeColor=#ff0000;entryX=0;entryY=0.75;entryDx=0;entryDy=0;exitX=0.648;exitY=0.068;exitDx=0;exitDy=0;exitPerimeter=0;" edge="1" parent="1" source="J0ww8ttCI4tsdEaziTgQ-32" target="J0ww8ttCI4tsdEaziTgQ-35">
          <mxGeometry relative="1" as="geometry">
            <mxPoint x="500" y="740" as="targetPoint" />
            <mxPoint x="500" y="680" as="sourcePoint" />
          </mxGeometry>
        </mxCell>
        <mxCell id="J0ww8ttCI4tsdEaziTgQ-43" value="" style="edgeStyle=orthogonalEdgeStyle;html=1;verticalAlign=bottom;endArrow=open;endSize=8;strokeColor=#ff0000;entryX=0.661;entryY=0.971;entryDx=0;entryDy=0;entryPerimeter=0;" edge="1" parent="1" target="J0ww8ttCI4tsdEaziTgQ-17">
          <mxGeometry relative="1" as="geometry">
            <mxPoint x="670" y="560" as="targetPoint" />
            <mxPoint x="469" y="320" as="sourcePoint" />
          </mxGeometry>
        </mxCell>
        <mxCell id="J0ww8ttCI4tsdEaziTgQ-45" value="" style="shape=line;html=1;strokeWidth=6;strokeColor=#ff0000;direction=south;" vertex="1" parent="1">
          <mxGeometry x="250" y="370" width="10" height="200" as="geometry" />
        </mxCell>
        <mxCell id="J0ww8ttCI4tsdEaziTgQ-48" value="" style="edgeStyle=orthogonalEdgeStyle;html=1;verticalAlign=bottom;endArrow=open;endSize=8;strokeColor=#ff0000;exitX=0.5;exitY=1;exitDx=0;exitDy=0;" edge="1" parent="1" source="J0ww8ttCI4tsdEaziTgQ-19" target="J0ww8ttCI4tsdEaziTgQ-45">
          <mxGeometry relative="1" as="geometry">
            <mxPoint x="210" y="920" as="targetPoint" />
            <mxPoint x="210" y="860" as="sourcePoint" />
          </mxGeometry>
        </mxCell>
        <mxCell id="J0ww8ttCI4tsdEaziTgQ-49" value="" style="edgeStyle=orthogonalEdgeStyle;html=1;verticalAlign=bottom;endArrow=open;endSize=8;strokeColor=#ff0000;exitX=0.149;exitY=0.609;exitDx=0;exitDy=0;entryX=0;entryY=0.5;entryDx=0;entryDy=0;exitPerimeter=0;" edge="1" parent="1" source="J0ww8ttCI4tsdEaziTgQ-45" target="J0ww8ttCI4tsdEaziTgQ-26">
          <mxGeometry relative="1" as="geometry">
            <mxPoint x="260" y="480" as="targetPoint" />
            <mxPoint x="170" y="380" as="sourcePoint" />
            <Array as="points">
              <mxPoint x="259" y="400" />
            </Array>
          </mxGeometry>
        </mxCell>
        <mxCell id="J0ww8ttCI4tsdEaziTgQ-50" value="" style="edgeStyle=orthogonalEdgeStyle;html=1;verticalAlign=bottom;endArrow=open;endSize=8;strokeColor=#ff0000;exitX=0.786;exitY=0.555;exitDx=0;exitDy=0;entryX=0;entryY=0.5;entryDx=0;entryDy=0;exitPerimeter=0;" edge="1" parent="1" source="J0ww8ttCI4tsdEaziTgQ-45" target="J0ww8ttCI4tsdEaziTgQ-23">
          <mxGeometry relative="1" as="geometry">
            <mxPoint x="340" y="410" as="targetPoint" />
            <mxPoint x="264" y="410" as="sourcePoint" />
            <Array as="points">
              <mxPoint x="254" y="530" />
            </Array>
          </mxGeometry>
        </mxCell>
      </root>
    </mxGraphModel>
  </diagram>
</mxfile>
